<svg version="1.2" xmlns="http://www.w3.org/2000/svg" viewBox="0 0 454 460" width="142" height="144"><style>.a{fill:#3e145c}.b{fill:#7d28b9}.c{fill:#a562d4}</style><path class="a" d="m283 461c-2.7 0-5.4 0-8.6-0.4-1.9-1-3.3-1.9-4.9-2.4-25.2-8.3-50.4-16.6-75.6-24.8-16.6-5.4-33.3-10.5-49.9-16-21.4-7-42.8-14.3-64.2-21.3-20.9-6.8-41.7-13.6-62.6-20-5.5-1.7-7.4-4.3-7.4-10.2 0.3-88.8 0.2-177.6 0.2-266.4 0-1.6 0.2-3.3 0-5-0.7-4.3 1.4-6.3 5.3-7.4q7.3-1.9 14.4-4.3c26.5-8.7 53-17.5 79.6-26.2 28.4-9.3 56.9-18.5 85.3-27.7q37.9-12.4 75.8-24.9c1.7-0.6 3.1-2 4.6-3 2 0 4.1 0 6.6 0.3 4.1 5.6 7.6 10.8 11.3 15.9 14 19.3 28.1 38.5 42 57.7 14.5 20 28.8 40 43.2 59.9 22.7 31.3 45.4 62.4 68 93.8 0.9 1.2 0.8 4.1-0.1 5.4-6.4 9.5-13.1 18.8-19.9 28-17.5 24.1-35 48.2-52.5 72.3-17.3 23.8-34.5 47.7-51.8 71.4-11.9 16.3-23.8 32.5-35.7 48.8-1.4 1.9-2.1 4.3-3.1 6.5zm-93.3-380.3c-11.1-3.6-22.3-7.4-33.5-10.8-1.3-0.4-3.7 0.3-4.5 1.3-4.1 5.1-7.9 10.3-11.7 15.6-19.9 27.4-39.7 54.9-59.6 82.3-14.2 19.6-28.3 39.1-42.6 58.5-1.9 2.6-2 4.6-0.1 7.2 3.8 5 7.3 10.3 11 15.4q31.3 43 62.6 85.9c13.1 18 26.3 35.9 39.3 54 2.1 2.9 3.9 3.3 7.1 2.2 27.3-8.9 54.7-17.6 82.1-26.5 32.5-10.6 65-21.4 97.7-31.8 5.2-1.7 6.6-4.3 6.6-9.6-0.2-62-0.1-124-0.1-185.9 0-1.4 0.3-2.8-0.1-4-0.6-1.5-1.4-3.4-2.7-4.2-2.2-1.3-4.8-2.1-7.4-2.9q-30-9.8-60.1-19.5c-18-5.7-36-11.4-54-17.2-9.8-3.1-19.5-6.4-30-10z"/><path class="b" d="m190.1 80.9c10.1 3.4 19.8 6.7 29.6 9.8 18 5.8 36 11.5 54 17.2q30.1 9.7 60.1 19.5c2.6 0.8 5.2 1.6 7.4 2.9 1.3 0.8 2.1 2.7 2.7 4.2 0.4 1.2 0.1 2.6 0.1 4 0 61.9-0.1 123.9 0.1 185.9 0 5.3-1.4 7.9-6.6 9.6-32.7 10.4-65.2 21.2-97.7 31.8-27.4 8.9-54.8 17.6-82.1 26.5-3.2 1.1-5 0.7-7.1-2.2-13-18.1-26.2-36-39.3-54q-31.3-42.9-62.6-85.9c-3.7-5.1-7.2-10.4-11-15.4-1.9-2.6-1.8-4.6 0.1-7.2 14.3-19.4 28.4-38.9 42.6-58.5 19.9-27.4 39.7-54.9 59.6-82.3 3.8-5.3 7.6-10.5 11.7-15.6 0.8-1 3.2-1.7 4.5-1.3 11.2 3.4 22.4 7.2 33.9 11zm-75.1 159.6c0 16.5 0.1 33-0.1 49.5-0.1 5.1 1.3 7.8 6.5 9.4 19.2 5.9 38.3 12.4 57.5 18.6 19.1 6.2 38.3 12.4 57.4 18.7 3.5 1.1 5.8 0.6 8-2.7 5.9-8.7 12.2-17 18.4-25.5 18-24.8 36-49.6 54-74.3 2-2.7 1.8-4.6-0.1-7.1-5.5-7.3-10.7-14.8-16.1-22.2-18.3-25.2-36.8-50.3-54.8-75.6-3.6-5.1-7.1-5.5-12.2-3.6-10.5 3.7-21.1 7.1-31.8 10.5-26.9 8.8-53.8 17.5-80.8 26.1-4.6 1.5-6.1 4-6 8.7 0.2 22.9 0.1 45.7 0.1 69.5z"/><path class="c" d="m115 240c0-23.3 0.1-46.1-0.1-69-0.1-4.7 1.4-7.2 6-8.7 27-8.6 53.9-17.3 80.8-26.1 10.7-3.4 21.3-6.8 31.8-10.5 5.1-1.9 8.6-1.5 12.2 3.6 18 25.3 36.5 50.4 54.8 75.6 5.4 7.4 10.6 14.9 16.1 22.2 1.9 2.5 2.1 4.4 0.1 7.1-18 24.7-36 49.5-54 74.3-6.2 8.5-12.5 16.8-18.4 25.5-2.2 3.3-4.5 3.8-8 2.7-19.1-6.3-38.3-12.5-57.4-18.7-19.2-6.2-38.3-12.7-57.5-18.6-5.2-1.6-6.6-4.3-6.5-9.4 0.2-16.5 0.1-33 0.1-50z"/></svg>